<svg xmlns="http://www.w3.org/2000/svg" height="1024" preserveAspectRatio="none" style="display: block;" version="1.1" viewBox="0 0 2048 2048" width="1024">
<defs>
&#x9;<linearGradient gradientUnits="userSpaceOnUse" id="Gradient1" x1="995.453" x2="1051.76" y1="486.929" y2="73.5083">
&#x9;&#x9;<stop class="stop0" offset="0" stop-color="rgb(185,78,20)" stop-opacity="1"></stop>
&#x9;&#x9;<stop class="stop1" offset="1" stop-color="rgb(227,156,88)" stop-opacity="1"></stop>
&#x9;</linearGradient>
&#x9;<linearGradient gradientUnits="userSpaceOnUse" id="Gradient2" x1="1021.07" x2="1062.94" y1="1917.52" y2="505.314">
&#x9;&#x9;<stop class="stop0" offset="0" stop-color="rgb(188,87,42)" stop-opacity="1"></stop>
&#x9;&#x9;<stop class="stop1" offset="1" stop-color="rgb(223,156,87)" stop-opacity="1"></stop>
&#x9;</linearGradient>
</defs>

<path d="M 841.728 570.052 C 829.714 569.607 820.071 569.112 810.991 559.527 C 805.589 553.921 802.778 546.311 803.238 538.54 C 804.064 525.036 816.046 509.74 830.097 509.09 C 850.762 508.135 871.894 508.55 892.618 508.58 L 1020.35 508.925 L 1153.74 508.22 C 1176.34 508.155 1200.01 507.38 1222.53 509.155 C 1238.81 510.439 1251.4 527.685 1248.85 543.978 C 1247.62 551.716 1243.37 558.648 1237.02 563.249 C 1227.49 570.113 1214.78 569.471 1203.4 569.84 L 1203.94 788.913 C 1203.46 822.066 1203.33 855.223 1203.57 888.379 C 1203.94 944.803 1203.32 955.968 1230.14 1008.13 C 1259.79 1065.8 1294.48 1116.47 1328.89 1170.99 L 1459.87 1379.26 C 1470.25 1395.84 1481.27 1412.04 1491.52 1428.67 C 1529.4 1490.21 1566.18 1552.41 1601.83 1615.27 C 1623.27 1651.86 1643.95 1688.89 1663.87 1726.33 C 1687.79 1770.5 1716.75 1820.77 1723.54 1871.48 C 1728.15 1905.97 1710.55 1928.32 1679.17 1939.66 C 1671.29 1942.63 1663.21 1945.04 1654.99 1946.87 C 1594.92 1960.62 1502.8 1962.48 1440.63 1963.7 C 1314.07 1966.19 1186.42 1965.36 1059.8 1965.25 C 930.789 1966.02 801.777 1965.47 672.781 1963.58 C 607.029 1962.53 538.397 1962.53 472.844 1957.17 C 434.742 1954.06 377.895 1947.36 345.086 1927.87 C 331.962 1920.07 325.912 1909.71 322.67 1895.19 C 316.278 1849.42 355.369 1779.47 377.092 1739.36 C 393.587 1708.61 410.558 1678.12 427.999 1647.9 C 498.911 1523.2 573.254 1400.49 650.943 1279.9 C 677.777 1238.7 704.132 1197.2 730.004 1155.39 C 766.465 1097.7 817.037 1020.42 839.184 954.492 C 843.663 941.159 841.366 879.509 841.505 860.736 L 841.728 570.052 z" fill="url(#Gradient2)" transform="translate(0,0)"></path>
<path d="M 713.761 1312.86 C 719.816 1313.75 724.74 1313.84 730.844 1314.03 C 800.572 1319.98 872.029 1320.34 941.828 1325.48 C 995.962 1330.6 1054.83 1332.38 1109.47 1334.8 C 1170.43 1337.65 1231.36 1341.21 1292.24 1345.48 C 1317.43 1363.6 1342.31 1382.12 1366.9 1401.05 C 1371.68 1404.71 1389.72 1417.39 1392.49 1420.94 C 1404.58 1436.49 1416.4 1459.74 1426.54 1477.14 C 1449.82 1517.14 1474.7 1556.82 1497.79 1596.77 C 1509.21 1616.87 1520.92 1636.81 1532.9 1656.59 C 1534.65 1659.51 1543.82 1675.5 1545.4 1677.37 C 1565.25 1714.55 1588.4 1749.44 1607.63 1787.07 C 1620.53 1812.3 1636.26 1836.02 1627.8 1865.87 C 1621.86 1886.84 1607.95 1894.7 1588.03 1899.44 C 1564.88 1904.95 1541.43 1907.29 1517.84 1910.13 C 1389.86 1924.91 1261.1 1925.64 1132.5 1927.28 C 964.524 1930.28 796.494 1927.3 628.731 1918.33 C 603.131 1916.62 577.563 1914.46 552.04 1911.85 C 518.543 1908.66 484.624 1906.37 452.509 1895.59 C 433.761 1889.3 426.272 1885.11 420.147 1866.03 C 415.045 1830.94 426.153 1818.62 442.254 1789.62 L 489.345 1706.04 C 538.671 1617.94 591.65 1531.65 640.675 1443.26 C 665.041 1399.33 690.336 1357.54 713.761 1312.86 z" fill="rgb(240,168,103)" transform="translate(0,0)"></path>
<path d="M 730.844 1314.03 C 800.572 1319.98 872.029 1320.34 941.828 1325.48 C 927.626 1355.7 894.708 1403.8 875.711 1431.34 C 784.798 1563.12 665.752 1686.7 527.666 1768.93 C 503.413 1783.37 485.42 1794.37 459.652 1806.43 C 477.152 1777.28 496.396 1749.58 514.26 1720.66 C 571.158 1629.91 624.601 1537.04 674.475 1442.24 C 693.374 1405.44 720.159 1353.61 730.844 1314.03 z" fill="rgb(255,255,255)" transform="translate(0,0)"></path>
<path d="M 858.009 569.268 L 872 569.263 L 871.867 868.787 L 871.981 952.244 C 871.814 1005.03 871.258 1001.21 846.487 1047.01 C 826.831 1082.72 806.834 1118.23 786.497 1153.55 C 780.217 1164.27 773.261 1174.56 767.134 1185.32 C 704.802 1294.8 644.371 1406.48 581.468 1515.53 L 495.651 1662.76 C 484.583 1681.81 470.562 1703.83 460.483 1722.91 C 455.975 1729.28 433.525 1768.43 431.38 1774.98 C 409.645 1808.39 397.377 1831.35 404.629 1871.3 C 404.992 1868.48 404.992 1867.45 405.976 1864.77 L 407.85 1864.32 L 410.834 1866.21 C 414.432 1866.07 413.341 1861.71 417.9 1860.67 C 418.357 1863.02 418.937 1863.97 420.147 1866.03 C 426.272 1885.11 433.761 1889.3 452.509 1895.59 C 484.624 1906.37 518.543 1908.66 552.04 1911.85 C 577.563 1914.46 603.131 1916.62 628.731 1918.33 C 796.494 1927.3 964.524 1930.28 1132.5 1927.28 C 1261.1 1925.64 1389.86 1924.91 1517.84 1910.13 C 1541.43 1907.29 1564.88 1904.95 1588.03 1899.44 C 1607.95 1894.7 1621.86 1886.84 1627.8 1865.87 C 1636.26 1836.02 1620.53 1812.3 1607.63 1787.07 C 1588.4 1749.44 1565.25 1714.55 1545.4 1677.37 C 1547.74 1678.03 1546.66 1677.48 1548.35 1679.59 L 1550.39 1679.5 C 1549.6 1676.39 1549.16 1676.14 1549.65 1673.12 L 1551.36 1673.34 C 1555.3 1677.8 1559.93 1683.31 1564.63 1686.86 C 1569.72 1690.7 1566.86 1694.38 1572.68 1695.43 C 1571.84 1692.09 1556.14 1668.89 1553.82 1662.21 L 1554.58 1660.85 C 1523.4 1604.38 1488.57 1549.82 1456.2 1494.26 L 1254.21 1141.85 C 1234.49 1106.99 1213.45 1072.82 1195.25 1036.97 C 1190.82 1028.23 1176.18 1003.36 1175.33 994.881 C 1174.21 983.788 1174.74 963.738 1174.79 951.864 L 1174.82 872.395 L 1174.8 569.608 C 1178.89 569.634 1183.53 569.548 1187.57 569.72 L 1188.08 824.312 L 1188.12 891.304 C 1188.07 909.153 1186.64 939.587 1191.35 955.87 C 1203.64 998.205 1225.97 1036.07 1248.81 1073.42 C 1258.14 1088.67 1266.65 1104.52 1276.19 1119.63 C 1409.68 1330.98 1547.2 1540.41 1663.81 1761.79 C 1680.66 1793.77 1698.65 1825.82 1705.01 1861.81 C 1710.19 1890.53 1707.13 1903.3 1682.11 1920.39 L 1683.96 1920.99 L 1682.59 1921.67 C 1678.84 1923.57 1677.19 1924.01 1674.66 1927.32 L 1674.58 1927.94 C 1676.66 1929 1676.13 1928.89 1678.35 1929.38 L 1679.33 1931.31 C 1677.01 1935.67 1676.82 1935.03 1679.17 1939.66 C 1671.29 1942.63 1663.21 1945.04 1654.99 1946.87 C 1594.92 1960.62 1502.8 1962.48 1440.63 1963.7 C 1314.07 1966.19 1186.42 1965.36 1059.8 1965.25 C 930.789 1966.02 801.777 1965.47 672.781 1963.58 C 607.029 1962.53 538.397 1962.53 472.844 1957.17 C 434.742 1954.06 377.895 1947.36 345.086 1927.87 C 331.962 1920.07 325.912 1909.71 322.67 1895.19 L 323.254 1890.64 L 323.838 1890.53 L 323.105 1892.85 L 324.555 1891.59 C 326.201 1892.26 329.442 1892.63 331.343 1892.94 C 332.365 1894.89 333.038 1896.07 334.234 1897.91 L 335.296 1897.45 C 336.648 1895.49 336.111 1886.9 336.592 1882.92 C 343.645 1830.91 377.998 1771.29 403.507 1725.03 C 425.386 1684.47 448.115 1644.37 471.68 1604.76 C 542.317 1483.19 615.867 1363.34 692.266 1245.3 C 720.65 1201.93 746.636 1161.9 773.266 1116.87 C 804.026 1064.86 840.758 1013.53 856.385 953.644 C 859.6 941.326 858.906 915.762 858.891 902.4 L 858.82 839.168 L 858.009 569.268 z" fill="rgb(255,255,255)" transform="translate(0,0)"></path>
<path d="M 1554.58 1660.85 C 1575.01 1692.22 1592.67 1726.22 1610.7 1759.05 C 1622.09 1779.79 1637.34 1802.06 1643.92 1824.84 C 1647.62 1837.68 1647.67 1853.15 1644.84 1866.17 C 1641.47 1881.67 1633.79 1895.08 1620.18 1903.84 C 1546.95 1951 969.708 1945.54 848.057 1942.97 C 764.924 1941.16 681.836 1937.64 598.846 1932.44 C 555.186 1929.37 509.026 1925.08 466.258 1916.19 C 437.514 1910.21 413.637 1901.46 404.629 1871.3 C 404.992 1868.48 404.992 1867.45 405.976 1864.77 L 407.85 1864.32 L 410.834 1866.21 C 414.432 1866.07 413.341 1861.71 417.9 1860.67 C 418.357 1863.02 418.937 1863.97 420.147 1866.03 C 426.272 1885.11 433.761 1889.3 452.509 1895.59 C 484.624 1906.37 518.543 1908.66 552.04 1911.85 C 577.563 1914.46 603.131 1916.62 628.731 1918.33 C 796.494 1927.3 964.524 1930.28 1132.5 1927.28 C 1261.1 1925.64 1389.86 1924.91 1517.84 1910.13 C 1541.43 1907.29 1564.88 1904.95 1588.03 1899.44 C 1607.95 1894.7 1621.86 1886.84 1627.8 1865.87 C 1636.26 1836.02 1620.53 1812.3 1607.63 1787.07 C 1588.4 1749.44 1565.25 1714.55 1545.4 1677.37 C 1547.74 1678.03 1546.66 1677.48 1548.35 1679.59 L 1550.39 1679.5 C 1549.6 1676.39 1549.16 1676.14 1549.65 1673.12 L 1551.36 1673.34 C 1555.3 1677.8 1559.93 1683.31 1564.63 1686.86 C 1569.72 1690.7 1566.86 1694.38 1572.68 1695.43 C 1571.84 1692.09 1556.14 1668.89 1553.82 1662.21 L 1554.58 1660.85 z" fill="rgb(217,110,42)" transform="translate(0,0)"></path>
<path d="M 336.592 1882.92 C 338.535 1895.43 340.851 1905.45 352.341 1913.17 C 377.504 1930.08 428.913 1937.25 458.903 1939.84 C 540.37 1946.88 624.241 1947.7 705.855 1948.44 C 825.071 1949.27 944.29 1949.49 1063.51 1949.09 L 1373.86 1948.59 C 1420.64 1948.33 1467.41 1947.2 1514.15 1945.19 C 1562.63 1943.01 1615.16 1940.25 1662.5 1928.01 C 1668.67 1926.41 1676.19 1921.95 1682.11 1920.39 L 1683.96 1920.99 L 1682.59 1921.67 C 1678.84 1923.57 1677.19 1924.01 1674.66 1927.32 L 1674.58 1927.94 C 1676.66 1929 1676.13 1928.89 1678.35 1929.38 L 1679.33 1931.31 C 1677.01 1935.67 1676.82 1935.03 1679.17 1939.66 C 1671.29 1942.63 1663.21 1945.04 1654.99 1946.87 C 1594.92 1960.62 1502.8 1962.48 1440.63 1963.7 C 1314.07 1966.19 1186.42 1965.36 1059.8 1965.25 C 930.789 1966.02 801.777 1965.47 672.781 1963.58 C 607.029 1962.53 538.397 1962.53 472.844 1957.17 C 434.742 1954.06 377.895 1947.36 345.086 1927.87 C 331.962 1920.07 325.912 1909.71 322.67 1895.19 L 323.254 1890.64 L 323.838 1890.53 L 323.105 1892.85 L 324.555 1891.59 C 326.201 1892.26 329.442 1892.63 331.343 1892.94 C 332.365 1894.89 333.038 1896.07 334.234 1897.91 L 335.296 1897.45 C 336.648 1895.49 336.111 1886.9 336.592 1882.92 z" fill="rgb(217,110,42)" transform="translate(0,0)"></path>
<path d="M 460.483 1722.91 L 461.257 1724.53 C 457.528 1732.32 450.43 1739.05 450.124 1746.06 C 449.852 1752.3 451.201 1753.9 449.177 1761.11 C 447.157 1760.33 448.073 1760.73 446.466 1758.56 C 445.844 1759.84 445.203 1761.12 444.542 1762.39 L 439.831 1762.86 C 436.719 1766.97 435.104 1772.88 432.227 1776.66 L 431.38 1774.98 C 433.525 1768.43 455.975 1729.28 460.483 1722.91 z" fill="rgb(217,110,42)" transform="translate(0,0)"></path>
<path d="M 888.224 568.985 L 1158.56 569.175 C 1161.1 711.035 1155.19 858.912 1159.99 1001.19 C 1160.24 1008.69 1175.52 1034.68 1179.95 1042.58 L 1210.19 1095.98 C 1246.89 1163.03 1284.31 1229.7 1322.44 1295.95 C 1339.73 1326.06 1361.31 1358.25 1377.1 1388.3 C 1363.78 1378.72 1308.34 1334.43 1298.93 1330.98 C 1290.8 1327.99 1280.85 1328.46 1272.25 1328.1 C 1174.42 1322.02 1076.55 1316.78 978.638 1312.4 C 917.336 1308.75 856.011 1305.51 794.666 1302.68 C 770.549 1301.47 745.464 1299.64 721.515 1298.84 C 763.917 1221.76 811.295 1147.56 853.042 1070.09 C 862.596 1052.36 879.712 1025.11 885.979 1006.99 C 891.419 991.252 888.016 884.925 888.005 859.652 L 888.224 568.985 z" fill="rgb(255,255,255)" transform="translate(0,0)"></path>
<path d="M 831.514 524.358 C 859.502 523.406 891.945 524.226 920.272 524.317 L 1076.66 524.589 L 1172.86 524.335 C 1187.95 524.391 1205.22 523.838 1220.05 525.435 C 1238.27 527.396 1233.96 546.036 1220.59 553.621 C 1205.12 554.65 1182.27 553.938 1165.99 553.914 L 1065.66 553.785 L 904.791 553.691 C 882.77 553.622 860.72 554.008 838.726 553.692 C 834.931 553.352 830.823 553.948 827.57 551.599 C 813.564 541.483 818.348 531.389 831.514 524.358 z" fill="rgb(255,255,255)" transform="translate(0,0)"></path>
<path d="M 946.242 156.766 C 956.362 129.029 975.029 85.8201 1003.79 72.8543 C 1016.06 67.4341 1030.03 67.3381 1042.38 72.5888 C 1072.15 85.0959 1090.91 127.844 1100.3 156.376 C 1132.48 149.431 1206.07 140.703 1217.44 184.114 C 1226.62 219.214 1190.75 257.365 1168.55 279.061 C 1187.03 299.773 1220.58 339.594 1218.74 369.029 C 1218.25 378.099 1214.11 386.587 1207.26 392.555 C 1182.75 414.091 1129.96 407.511 1100.68 401.64 C 1089.2 439.188 1064.04 505.223 1011.75 490.763 C 987.886 484.167 972.519 459.575 962.007 438.747 C 955.974 426.603 950.891 414.011 946.802 401.082 C 914.433 406.965 873.289 412.496 842.384 394.633 C 839.261 392.828 833.327 387.141 832.322 383.411 C 825.897 371.739 828.566 356.542 833.509 344.834 C 838.974 325.322 864.815 293.712 879.319 279.866 C 857.977 257.993 829.408 226.105 829.741 193.365 C 830.303 138.152 910.672 148.109 946.242 156.766 z" fill="url(#Gradient1)" transform="translate(0,0)"></path>
<path d="M 833.509 344.834 C 834.281 348.811 830.98 357.225 831.416 357.778 C 842.687 372.051 832.283 369.528 832.322 383.411 C 825.897 371.739 828.566 356.542 833.509 344.834 z" fill="rgb(217,110,42)" transform="translate(0,0)"></path>
<path d="M 1022.51 194.774 C 1037.66 195.268 1089.61 229.948 1103.8 240.343 C 1107.62 272.63 1107.33 285.377 1104.8 317.551 C 1096.83 322.106 1086.27 329.907 1078.19 335.12 C 1060.87 346.393 1042.48 355.919 1023.28 363.559 C 1017.2 365.254 953.287 325.91 943.47 319.963 C 937.611 292.937 938.771 269.734 941.16 242.574 C 963.659 222.989 995.595 207.081 1022.51 194.774 z" fill="rgb(255,255,255)" transform="translate(0,0)"></path>
<path d="M 1024.76 376.993 C 1049.13 387.11 1064.37 391.57 1089.42 398.902 C 1078.66 429.905 1063.4 477.353 1025.47 481.835 C 986.766 477.369 967.625 431.091 959.121 398.03 C 983.179 391.371 1001.52 386.349 1024.76 376.993 z" fill="rgb(255,255,255)" transform="translate(0,0)"></path>
<path d="M 1015.58 82.1872 C 1023.5 81.6393 1030.56 81.5075 1037.95 85.0358 C 1063.99 97.4527 1077.66 133.632 1087.15 158.411 C 1066.98 164.223 1046.93 169.354 1028.51 179.672 C 1020.94 182.623 1006.29 173.997 997.999 171.08 C 984.464 166.317 972.153 163.071 958.213 159.941 C 961.483 150.348 965.451 141.007 970.085 131.993 C 980.195 112.166 993.41 89.2923 1015.58 82.1872 z" fill="rgb(255,255,255)" transform="translate(0,0)"></path>
<path d="M 1139.97 163.419 C 1155.03 161.963 1185.6 163.856 1196.99 174.499 C 1223.59 199.353 1183.12 246.827 1166.31 266.003 L 1160.54 271.745 C 1151.74 263.505 1125.38 239.501 1115.54 234.493 C 1113.2 212.205 1109.4 190.096 1104.16 168.308 C 1115.02 165.65 1128.71 164.433 1139.97 163.419 z" fill="rgb(255,255,255)" transform="translate(0,0)"></path>
<path d="M 880.285 163.337 C 899.394 160.588 924.11 163.968 942.715 168.495 C 935.955 192.984 932.716 209.546 930.03 234.725 C 918.758 243.2 907.94 252.261 897.619 261.872 L 887.403 271.8 C 858.153 242.382 804.175 174.273 880.285 163.337 z" fill="rgb(255,255,255)" transform="translate(0,0)"></path>
<path d="M 887.03 288.539 C 889.111 289.426 896.409 296.347 898.554 298.362 C 908.662 307.856 918.861 315.626 930.359 323.416 C 934.36 344.138 938.386 369.424 943.615 389.472 C 926.665 392.8 914.685 393.882 897.75 394.82 C 799.673 394.064 847.68 330.978 887.03 288.539 z" fill="rgb(255,255,255)" transform="translate(0,0)"></path>
<path d="M 1159.56 288.068 C 1177.07 303.38 1204.26 339.201 1206.01 363.814 C 1207.95 391.177 1172.23 394.561 1152.16 395.668 C 1135.36 395.073 1120.68 392.636 1104.3 389.547 C 1110.53 364.51 1113.66 349.618 1116.15 323.943 C 1128.99 312.351 1144.86 301.321 1159.56 288.068 z" fill="rgb(255,255,255)" transform="translate(0,0)"></path>
<path d="M 1101.7 333.877 L 1102.23 334.353 C 1104.9 340.325 1094.4 379.297 1092.46 387.031 C 1080.12 383.88 1067.88 380.345 1055.75 376.431 L 1039.68 370.688 C 1062.74 357.875 1079.49 348.699 1101.7 333.877 z" fill="rgb(255,255,255)" transform="translate(0,0)"></path>
<path d="M 944.616 334.607 C 948.202 336.59 952.616 339.481 956.079 341.797 C 972.927 353.066 989.923 362.003 1008.11 370.905 L 996.83 375.066 C 982.556 380.29 970.337 383.676 955.753 387.486 C 950.369 370.254 946.64 352.547 944.616 334.607 z" fill="rgb(255,255,255)" transform="translate(0,0)"></path>
<path d="M 955.252 171.608 C 975.42 176.09 988.798 180.426 1007.68 188.441 C 996.757 192.691 987.299 197.403 977.089 203.1 C 966.373 209.902 955.522 216.489 944.542 222.857 C 947.172 202.004 948.964 191.53 955.252 171.608 z" fill="rgb(255,255,255)" transform="translate(0,0)"></path>
<path d="M 1087.48 171.108 L 1089.83 171.359 C 1094.07 177.553 1101.11 215.139 1102.72 224.319 C 1093.12 217.455 1085.52 212.233 1075.43 206.072 C 1063.94 199.058 1052.14 192.559 1040.07 186.593 C 1056.45 179.544 1070.42 175.481 1087.48 171.108 z" fill="rgb(255,255,255)" transform="translate(0,0)"></path>
<path d="M 1118.04 251.451 C 1128.28 257.554 1141.8 271.067 1150.37 279.64 C 1146.11 284.03 1141.14 288.183 1136.51 292.222 C 1130.49 297.581 1124.52 301.784 1118.02 306.489 C 1118.51 288.146 1118.51 269.794 1118.04 251.451 z" fill="rgb(255,255,255)" transform="translate(0,0)"></path>
<path d="M 926.441 252.763 C 926.586 252.879 926.75 252.975 926.876 253.112 C 928.941 255.347 928.761 299.905 929.053 306.993 C 923.566 303.184 917.762 298.373 912.477 294.165 C 906.972 289.741 901.575 284.807 896.279 280.103 C 905.26 270.305 916.014 260.983 926.441 252.763 z" fill="rgb(255,255,255)" transform="translate(0,0)"></path>
<metadata><recraft-signature>{&#34;signed_by&#34;: &#34;recraft&#34;, &#34;signature_b64&#34;: &#34;KswxosKgu5vNQasXHAW00P3RUk1pO4vih4wc/cmh1HepuMJOprQDJFmBMbiqnpLvRhPih8J4Z+Pl60KOPTQ6DQ==&#34;, &#34;signing_algo&#34;: &#34;Ed25519&#34;, &#34;generation_timestamp&#34;: 1783605249, &#34;identifier&#34;: &#34;3982f40b-b761-462a-83f2-2eff6adff342&#34;}</recraft-signature></metadata></svg>